<svg width="42" height="15" viewBox="0 0 42 15" fill="none" xmlns="http://www.w3.org/2000/svg">
<path d="M8.792 7.992H5.56V11.304H3.864V7.992H0.632V6.456H3.864V3.144H5.56V6.456H8.792V7.992ZM17.6699 4.04C17.5525 3.54933 17.3392 3.18133 17.0299 2.936C16.7205 2.69067 16.2885 2.568 15.7339 2.568C14.8912 2.568 14.2619 2.89333 13.8459 3.544C13.4299 4.184 13.2112 5.25067 13.1899 6.744C13.4672 6.27467 13.8725 5.912 14.4059 5.656C14.9392 5.4 15.5152 5.272 16.1339 5.272C16.8379 5.272 17.4565 5.42667 17.9899 5.736C18.5339 6.03467 18.9552 6.472 19.2539 7.048C19.5632 7.624 19.7179 8.312 19.7179 9.112C19.7179 9.85867 19.5685 10.5253 19.2699 11.112C18.9819 11.6987 18.5499 12.1627 17.9739 12.504C17.3979 12.8347 16.7045 13 15.8939 13C14.7952 13 13.9312 12.76 13.3019 12.28C12.6832 11.7893 12.2459 11.1013 11.9899 10.216C11.7445 9.33067 11.6219 8.22667 11.6219 6.904C11.6219 3 12.9979 1.048 15.7499 1.048C16.8165 1.048 17.6539 1.336 18.2619 1.912C18.8805 2.488 19.2432 3.19733 19.3499 4.04H17.6699ZM15.7339 6.808C15.0832 6.808 14.5285 7.00533 14.0699 7.4C13.6219 7.784 13.3979 8.344 13.3979 9.08C13.3979 9.816 13.6059 10.4027 14.0219 10.84C14.4485 11.2667 15.0405 11.48 15.7979 11.48C16.4699 11.48 16.9979 11.272 17.3819 10.856C17.7765 10.44 17.9739 9.88533 17.9739 9.192C17.9739 8.46667 17.7819 7.89067 17.3979 7.464C17.0245 7.02667 16.4699 6.808 15.7339 6.808ZM22.6875 10.52C23.7115 9.63467 24.5168 8.90933 25.1035 8.344C25.7008 7.768 26.1968 7.17067 26.5915 6.552C26.9862 5.93333 27.1835 5.31467 27.1835 4.696C27.1835 4.056 27.0288 3.55467 26.7195 3.192C26.4208 2.82933 25.9462 2.648 25.2955 2.648C24.6662 2.648 24.1755 2.85067 23.8235 3.256C23.4822 3.65067 23.3008 4.184 23.2795 4.856H21.5195C21.5515 3.64 21.9142 2.712 22.6075 2.072C23.3115 1.42133 24.2022 1.096 25.2795 1.096C26.4422 1.096 27.3488 1.416 27.9995 2.056C28.6608 2.696 28.9915 3.54933 28.9915 4.616C28.9915 5.384 28.7942 6.12533 28.3995 6.84C28.0155 7.544 27.5515 8.17867 27.0075 8.744C26.4742 9.29867 25.7915 9.944 24.9595 10.68L24.2395 11.32H29.3115V12.84H21.5355V11.512L22.6875 10.52ZM41.8184 14.808H39.9944V0.183999H41.8184V14.808Z" fill="black"/>
</svg>
